<svg xmlns:dc="http://purl.org/dc/elements/1.1/" xmlns:cc="http://creativecommons.org/ns#" xmlns:rdf="http://www.w3.org/1999/02/22-rdf-syntax-ns#" xmlns:svg="http://www.w3.org/2000/svg" xmlns="http://www.w3.org/2000/svg" viewBox="0 0 704 704" fill="none"><metadata><rdf:RDF><cc:Work><dc:format>image/svg+xml</dc:format><dc:type rdf:resource="http://purl.org/dc/dcmitype/StillImage"/><dc:title>Open Peeps</dc:title><dc:creator><cc:Agent><dc:title>Pablo Stanley</dc:title></cc:Agent></dc:creator><dc:source>https://www.openpeeps.com/</dc:source><cc:license rdf:resource="https://creativecommons.org/publicdomain/zero/1.0/"/></cc:Work><cc:License rdf:about="https://creativecommons.org/publicdomain/zero/1.0/"><cc:permits rdf:resource="https://creativecommons.org/ns#Reproduction"/><cc:permits rdf:resource="https://creativecommons.org/ns#Distribution"/><cc:permits rdf:resource="https://creativecommons.org/ns#DerivativeWorks"/></cc:License></rdf:RDF></metadata><mask id="avatarsRadiusMask"><rect width="704" height="704" rx="0" ry="0" x="0" y="0" fill="#fff"/></mask><g mask="url(#avatarsRadiusMask)"><g fill-rule="evenodd" clip-rule="evenodd"><path d="M705.281 1074.02a2351.117 2351.117 0 0 1-11.084-68.46c-1.594-10.86-3.149-21.73-4.547-32.618-.979-7.628-2.47-16.351 2.72-22 7.303-7.952 13.937-14.758 14.831-26.149.841-10.717-2.783-22.4-5.049-32.803-4.752-21.816-10.668-43.362-17.205-64.704-6.641-21.683-13.923-43.162-21.31-64.6-6.906-20.044-13.545-40.269-22.54-59.5-17.071-36.495-45.951-63.522-81.643-81.568-8.877-4.488-26.983-20.51-36.257-24.097-8.526-3.298-8.495 6.333-16.886 2.705-6.708-2.9-12.954-6.767-16.71-13.244-4.078-7.033-14.305-16.869-15.862-25.055-3.299-17.351.275-32.12-12.109-45.179-10.994-11.597-25.771-19.542-41.061-23.807-33.636-9.381-78.494-2.822-98.788 28.433-9.693 14.926-13.08 32.968-26.159 45.149-11.421 10.636-8.865 17.908-23.657 23.39-.838.311-23.546-4.56-24.384-4.248-16.182-3.463-31.648 6.23-46.494 11.856-22.133 8.384-43.205 19.298-63.002 32.269-39.92 26.155-74.11 60.118-102.296 98.551-28.42 38.75-50.471 82.182-66.172 127.576a492.842 492.842 0 0 0-10.26 33.455c-1.69 6.307-3.497 12.849-1.438 19.305 1.684 5.283 5.43 9.216 9.829 12.385 5.963 4.297 17.924 7.09 17.69 15.732-.177 6.57-2.406 13.485-3.494 19.978-1.295 7.732-2.36 15.51-3.423 23.276-4.84 35.352-8.607 70.902-10.273 106.552-1.64 35.1-3.001 70.92-.566 106.01.16 2.31.85 4.44 1.964 6.23-1.04.4-1.12 2.34.174 2.61.906.19 1.81.39 2.716.58 1.882 1.42 4.229 2.29 6.93 2.38 1.83.06 3.66.14 5.49.23 19.3 4.04 38.599 7.85 58.152 10.74 23.768 3.5 47.606 6.36 71.518 8.69 49.135 4.78 97.883 3.19 147.083.62 49.124-2.58 98.219-3.18 147.394-1.9 49.218 1.28 98.418 3.42 147.647 4.3 54.999.98 109.914-.52 164.754-4.9 7.519-.59 12.171-6.58 10.688-14.04-8.885-44.75-18.954-89.19-26.911-134.13Z" fill="rgba(237, 185, 138, 1)"/><path d="m201.087 597.521 1.074-.414c14.518-5.671 29.628-14.822 45.421-11.442.558-.208 10.834 1.887 17.872 3.215l-6.68 6.973-11.79 2.268c40.673 67.128 88.778 100.692 144.314 100.692 55.537 0 97.678-33.564 126.425-100.692l3.923-1.085c.484.112 1 .271 1.552.485 9.274 3.587 27.379 19.608 36.256 24.096 35.692 18.047 64.572 45.073 81.643 81.569 8.695 18.59 15.189 38.108 21.85 57.494l.69 2.005c7.387 21.438 14.669 42.918 21.31 64.601 6.253 20.414 11.938 41.015 16.579 61.86l.626 2.844c2.266 10.403 5.89 22.085 5.049 32.803-.318 4.058-1.365 7.534-2.912 10.687l-80.446 28.947 38.326 261.393c-35.107 1.51-70.246 1.9-105.419 1.27-49.229-.88-98.429-3.02-147.647-4.3-47.685-1.24-95.294-.71-142.928 1.67l-12.097.62c-46.613 2.33-92.858 3.52-139.452-1.01l-3.175-.31v-38.24l16.367-212.911-82.945-15.613-81.422-39.546c-2.46-2.459-4.434-5.329-5.532-8.773-1.907-5.98-.498-12.033 1.064-17.905l.375-1.4a492.842 492.842 0 0 1 10.26-33.455c15.7-45.394 37.751-88.827 66.171-127.576 28.187-38.433 62.377-72.396 102.296-98.552 19.797-12.97 40.869-23.884 63.002-32.268Z" fill="rgba(143, 167, 223, 1)"/><path d="M232.235 584.564c5.086-.221 10.272.602 15.346 1.101.442.043.61.725.112.829-9.08 1.897-18.062 4.492-26.98 7.128l-3.819 1.13c-10.057 2.975-19.819 6.044-29.555 10.012-19.404 7.908-37.833 18.582-54.794 30.845C67.233 682.83 19.963 754.324-9.867 828.345a525.982 525.982 0 0 0-20.525 61.653 554.65 554.65 0 0 0-3.83 15.347c-.354 1.505-1.897 5.359-1.05 6.899.747 1.361 3.655 2.202 5.006 2.91l4.561 2.365c8.897 4.585 23.717 12.123 25.203 12.857l2.318 1.141c37.91 18.585 78.418 34.345 121.079 35.436l.334-3.643c1.902-20.141 4.398-40.389 9.846-59.911.293-1.049 1.628-.695 1.75.237 3.035 23.111 2.065 46.402 1.006 69.62-1.875 41.124-4.365 82.224-6.578 123.324-1.108 20.57-2.54 41.11-3.833 61.67-1.295 20.59-1.714 41.68-4.671 62.1-.659 4.55-5.991 7.03-10.029 6.55-4.468-.53-7.905-4.47-7.926-8.98-.054-11.9 1.441-23.94 2.272-35.8.789-11.28 1.636-22.55 2.504-33.82 3.172-41.13 6.821-82.21 10.196-123.33 1.196-14.58 2.488-29.147 3.818-43.715-45.193-1.457-87.414-18.196-127.692-37.754-.583 13.237-1.99 26.45-3.354 39.632-3.805 36.787-7.16 73.557-9.67 110.457-1.269 18.64-2.192 37.3-2.996 55.96a1708.912 1708.912 0 0 0-1.187 36.7l-.137 7.01c-.113 4.44-.564 8.55-4.3 11.78-3.796 3.29-8.922 3.46-12.678 0-5.028-4.63-4.139-10.93-3.99-17.15a1718.048 1718.048 0 0 1 1.775-47.18c1.886-36.64 5.655-73.13 10.58-109.47l1.922-14.03c3.59-26.08 7.532-52.754 15.558-77.877a1428.758 1428.758 0 0 1-9.345-4.691c-5.506-2.788-11.199-5.404-16.55-8.481-4.247-2.441-7.909-5.789-9.09-10.73-1.319-5.505.697-11.526 2.036-16.896l.116-.472a502.049 502.049 0 0 1 4.22-16.153c6.05-21.739 13.53-43.054 22.285-63.849 17.53-41.632 40.157-81.183 67.796-116.944 24.88-32.19 54.269-61.382 88.715-83.276 16.84-10.704 34.786-19.493 53.765-25.707 8.871-2.904 18.523-5.43 27.811-6.47 5.01-.56 10.027-.881 15.061-1.1Zm90.114-65.97c6.044-6.49 18.052.226 15.15 8.82-6.826 20.219-17.696 38.662-34.66 51.948-15.946 12.49-34.961 20.601-55.439 18.87a1.217 1.217 0 0 1-.416-.111l1.765 2.394c13.854 18.741 28.47 37.223 46.087 52.541 35.893 31.211 84.763 48.045 131.953 36.07 37.128-9.421 69.838-38.78 79.458-76.196-1.379.618-3.018.829-4.817.438-7.697-1.671-15.317-9.766-20.281-15.57-5.37-6.279-9.564-13.059-12.638-20.723-5.626-14.026-7.43-32.085.252-45.672.948-1.675 3.134-.736 3.32.899l.292 2.552c1.481 12.734 3.326 25.051 9.33 36.659 2.938 5.68 6.46 11.224 10.747 15.981 2.294 2.545 4.781 4.977 7.466 7.111 2.616 2.079 5.783 3.583 8.128 5.968l.43.458.012-.082c.593-5.041 4.128-7.262 7.587-7.123 3.347.135 7.279 1.608 8.802 2.314l.144.068c23.352 11.21 44.859 25.821 65.099 42.031 41.856 33.524 73.217 77.349 88.412 128.957 7.458 25.329 11.737 51.428 16.254 77.405l2.782 15.917c4.216 23.981 8.926 48.435 18.444 70.743 2.462 5.771.564 11.183-5.473 13.452-7.538 2.834-15.104 5.578-22.682 8.288 3.721 15.963 5.99 32.479 8.778 48.519 5.926 34.1 13.187 67.98 19.413 102.04 3.183 17.41 6.055 34.88 9.235 52.29 1.531 8.39 3.129 16.76 4.683 25.14.837 4.52 1.596 9.06 2.395 13.58l.139.76c.458 2.38 1.033 4.85.376 7.24-.749 2.73-2.876 4.65-4.775 6.61-1.563 1.61-3.822 1.62-5.737.74l-.63-.29c-3.42-1.6-6.1-3.2-7.313-7.06-.768-2.44-1.045-5.19-1.547-7.71-.963-4.82-1.876-9.66-2.738-14.5a3535.65 3535.65 0 0 1-5.052-29.1l-1.536-9.09c-5.27-31.33-10.275-62.85-12.805-94.51-1.123-14.05-2.312-28.08-3.513-42.12l-.901-10.524c-1.14-13.325-2.533-26.987-2.73-40.492l-4.532 1.609-22.11 7.816c-5.482 1.937-12.462 5.907-18.362 5.185-2.888-.354-5.09-1.263-6.79-2.915 2.036 28.733 4.792 57.421 8.465 85.951 3.342 25.97 7.047 51.9 11.423 77.71 2.167 12.78 4.394 25.55 6.813 38.29 1.209 6.37 2.457 12.73 3.743 19.08.641 3.17 1.404 6.35 1.904 9.54.572 3.66-.436 5.91-2.481 8.93-1.679 2.47-5.038 3.74-7.761 2.03-3.606-2.26-5.487-4.22-6.548-8.34-.964-3.75-1.55-7.65-2.296-11.44-1.377-7-2.708-14.01-3.993-21.02-2.687-14.68-5.164-29.38-7.376-44.14-7.795-51.97-12.741-104.37-15.239-156.859-1.233-25.897-1.614-51.817-1.395-77.741.112-13.288.546-26.614 1.486-39.869.952-13.417 2.932-26.566 4.7-39.854.062-.468.722-.495.75 0 .837 14.898 2.149 29.779 2.792 44.716.614 14.253.883 28.528 1.371 42.786.641 18.742 1.53 37.495 2.707 56.235 2.131-2.331 5.343-3.675 8.557-3.15 4.656-.977 9.668-3.42 14.107-4.903l16.734-5.59c8.797-2.938 17.594-5.856 26.422-8.686-7.893-26.553-13.3-53.502-17.917-80.844l-2.059-12.297c-4.075-24.204-8.47-48.419-15.852-71.858-7.761-24.642-19.375-47.552-34.782-68.299-15.187-20.447-33.664-38.451-52.688-55.291-16.287-14.416-33.71-27.432-50.322-41.452.174.929.211 1.952.058 3.076-3.532 25.85-17.017 49.923-35.81 67.828-37.755 35.971-93.642 43.434-141.964 26.566-46.743-16.316-88.07-54.958-102.671-102.775-.25-.818.846-1.143 1.286-.542.81 1.11 1.624 2.22 2.439 3.33-.055-.441.174-.921.718-1.131 17.036-6.578 33.765-15.907 46.535-29.104 6.224-6.433 11.656-13.721 15.944-21.581 2.054-3.765 3.899-7.664 5.371-11.693l.374-1.042c1.784-5.047 3.275-10.193 6.999-14.192Z" fill="#000"/></g><g transform="matrix(.99789 0 0 1 156 62)"><g fill-rule="evenodd" clip-rule="evenodd"><path d="M287.407 509.469c-22.196.131-41.06-6.167-55.454-16.586-17.962-6.405-39.628-16.284-52.788-26.655-5.133 1.31-11.275-4.143-15.203-7.021-24.425-18.239-43.597-44.936-49.278-71.678-8.77 11.07-21.25 11.53-33.205 6.028-25.06-14.212-24.123-44.137-15.1-66.495-18.968-42.557-32.113-154.903-3.16-200.244 5.922-6.784 14.613-10.842 20.87-17.799 5.568-6.076 10.864-12.291 17.342-17.099 19.766-15.044 53.81-23.054 75.126-26.821 88.982-19.238 157.35 15.34 237.952 44.507-4.639 11.6-11.056 22.179-18.41 32.043 20.01 7.469 10.819 24.262-4.705 32.775l-9.242-4.492c14.407 51.546 47.563 179.728 33.257 220.891-11.408 64.22-61.474 119.112-128.002 118.646" fill="rgba(237, 185, 138, 1)"/><path d="M86.085 309.846c-11.395 0-19.783 12.621-19.783 12.621H63.95c-17.791-45.803-28.931-151.542-1.06-195.189 2.984-3.419 6.672-6.145 10.397-8.899 3.666-2.711 7.37-5.449 10.473-8.9.776-.847 1.547-1.696 2.316-2.544 4.751-5.237 9.45-10.417 15.026-14.555 19.766-15.044 53.81-23.054 75.126-26.821 76.505-16.54 137.772 6.7 204.678 32.082 10.911 4.139 21.972 8.335 33.274 12.425-4.639 11.6-11.056 22.179-18.41 32.043 20.01 7.469 10.819 24.262-4.705 32.775l-6.822-3.316c-1.798-9.622-6.599-28.451-16.75-29.461-7.171-.713-18.906 5.987-30.344 12.517-10.362 5.916-20.481 11.692-26.742 11.692-4.932 0-17.4-4.01-32.998-9.026-26.058-8.381-60.852-19.571-83.846-19.571-36.757 0-68.048 30.361-80.482 52.365-12.433 22.005 18.505 49.333 18.505 49.333s-18.505 23.718-18.505 34.091c0 10.372 4.325 42.876 4.325 42.876s-19.925-6.538-31.32-6.538Z" fill="rgba(44, 27, 24, 1)"/><path d="M300.265 514.999c-28.82 2.958-63.058-3.855-82.271-27.266a3.638 3.638 0 0 1-.841-2.261 3.693 3.693 0 0 1 .763-2.315 3.43 3.43 0 0 1 2.106-1.295c.714-.128 1.527-.045 2.366.425l1.767.984c13.121 7.247 26.748 13.427 41.619 16.072 15.31 2.723 30.901 2.419 46.075-1.039 27.641-6.298 50.011-22.364 66.476-43.547 18.374-23.639 29.408-53.647 32.22-83.657 3.408-36.369-4.498-72.516-12.677-107.73-8.594-37.001-17.988-73.813-28.901-110.198-.329-1.096-.417-2.121-.322-3.065-3.219-1.261-6.645-.911-10.054.24-6.23 2.104-12.436 6.847-17.612 10.762-1.874 1.418-3.618 2.736-5.185 3.808-6.418 4.392-13.434 7.552-21.279 8.049-8.159.515-16.158-2.021-23.568-5.194-3.765-1.612-7.469-3.285-11.158-4.95-10.505-4.744-20.886-9.44-32.23-12.492a173.389 173.389 0 0 0-46.637-5.962c-28.096.257-56.278 7.489-73.497 31.251-6.975 9.626-11.523 20.689-7.976 32.568 1.929 6.463 5.57 12.329 9.544 17.725l1.364 1.838c2.18 2.961 4.073 5.911 4.644 9.052.478 2.631.105 5.414-1.774 8.465-1.182 1.92-2.687 3.643-4.2 5.359-1.092 1.238-2.186 2.474-3.128 3.805-1.898 2.682-3.578 5.572-4.896 8.585-2.581 5.899-3.676 12.245-3.905 18.644-.277 7.721.808 15.274 1.885 22.838.764 5.363 1.525 10.732 1.833 16.166.054.948-.236 1.654-.642 2.177-.497.64-1.222 1.043-2.047 1.155-.251.034-.51.039-.771.016.128.523.241 1.048.339 1.575a28.555 28.555 0 0 0-1.662-1.951 3.447 3.447 0 0 1-1.549-1.546 31.468 31.468 0 0 0-2.629-2.189c-4.794-3.577-10.392-5.697-16.007-5.768-5.414-.068-10.84 1.776-15.013 5.669-8.294 7.737-10.723 20.368-10.81 31.212-.088 11.071 2.474 24.356 12.126 31.229 3.872 2.757 8.6 4.414 13.364 4.462 3.95.039 7.728-1.358 11.448-2.689 1.148-.41 2.289-.818 3.428-1.189 1.295-.421 2.474-.395 3.502-.087 1.159.347 2.142 1.064 2.877 2.02a6.957 6.957 0 0 1 1.36 3.392 6.8 6.8 0 0 1-.533 3.595c-.129.285-.264.562-.405.832l2.123 3.491c8.128 13.331 16.399 26.419 27.245 37.878 6.225 6.577 12.824 12.783 20.062 18.216l1.044.775a53.183 53.183 0 0 1 2.056 1.629c2.111 1.727 4.642 4.043 7.004 4.134.701.027 1.313-.06 1.87-.133 1.345-.177 2.473-.229 3.582.224.892.364 1.818 1.043 2.768 2.446.643.95.973 2.141.973 3.35 0 1.214-.333 2.429-.928 3.389-1.229 1.987-2.717 3.218-4.331 3.917-1.8.779-3.789.898-5.856.513-5.092-.95-10.729-5.168-14.317-7.921l-.694-.531c-7.948-6.063-15.482-12.772-22.104-20.275-11.278-12.776-21.407-27.832-26.61-44.283-3.667 2.409-8.197 3.552-12.934 3.732-6.901.263-14.205-1.513-19.588-4.065-11.862-5.625-19.066-16.264-22.443-28.499-3.92-14.208-2.646-30.543 2.318-43.307.143-.371.294-.74.448-1.116-15.282-38.717-19.98-81.709-18.672-123.028.613-19.34 1.93-39.631 6.492-58.494 2.045-8.454 5.599-16.505 11.272-23.161 3.235-3.795 7.204-6.75 11.19-9.697 3.454-2.552 6.92-5.098 9.837-8.285l1.38-1.513.894-.986c5.037-5.551 9.941-10.939 16.054-15.492 7.089-5.278 14.911-9.41 23.04-12.842 17.511-7.39 36.357-11.821 55.002-15.25 40.336-7.415 81.742-7.78 121.583 2.643 18.524 4.845 36.501 11.478 54.448 18.102l4.998 1.844a28845.612 28845.612 0 0 0 41.855 15.362c6.485 2.376 12.971 4.752 19.455 7.131 1.407.516 2.785 1.628 3.569 3.01.766 1.348.994 2.92.376 4.486-3.979 10.081-9 19.539-15.111 28.371 2.124 1.445 3.931 3.366 5.298 5.614a19.571 19.571 0 0 1 2.823 9.782c.233 11.961-10.652 20.069-19.683 25.933-.841.548-1.675.871-2.48 1.019 8.75 33.457 17.127 67.027 24.244 100.864l.49 2.345c7.332 35.412 12.062 71.551 5.128 107.433-5.97 30.899-19.841 60.719-41.516 83.738-21.241 22.559-49.743 36.761-80.581 39.927Zm-189.77-203.711c-3.774-11.976-5.774-25.006-4.33-37.145.909-7.631 3.203-14.977 6.939-21.703 2.139-3.852 4.747-7.418 7.593-10.776l.982-1.128c.497-.577.991-1.106 1.144-1.77.089-.386-.002-.808-.236-1.312-.519-1.116-1.485-2.192-2.389-3.242-.574-.668-1.135-1.323-1.606-1.96-8.271-11.196-14.439-24.525-12.434-38.722 1.956-13.852 11.034-26.763 20.698-36.494 21.281-21.426 54.273-26.35 83.176-25.168 16.825.688 33.622 3.653 49.645 8.833 7.901 2.554 15.626 5.666 23.133 9.232l1.662.798c.897.434 1.793.874 2.69 1.313 5.868 2.878 11.758 5.784 18.128 7.348 12.44 3.055 20.879-3.379 29.748-9.867 3.04-2.224 6.126-4.478 9.407-6.457l.675-.399c5.918-3.43 12.996-5.739 19.796-5.635 5.906.09 11.604 1.975 16.244 6.432.952.916 1.5 1.915 1.757 2.909.514.72.928 1.578 1.198 2.592a8704.976 8704.976 0 0 1 4.965 18.718l1.348-.869c3.994-2.594 8.337-5.559 10.298-9.899.754-1.67.648-4.453-.304-6.499-.332-.715-.772-1.351-1.379-1.748-.442-.288-.975-.424-1.594-.374-1.505.194-2.887-.026-4.059-.522-1.352-.571-2.429-1.511-3.129-2.643a6.032 6.032 0 0 1-.867-3.938c.15-1.215.673-2.485 1.709-3.678 6.813-7.854 12.552-16.517 16.912-25.921l-28.846-10.672a17546.707 17546.707 0 0 0-30.864-11.386l-5.635-2.07c-18.714-6.865-37.536-13.573-56.999-17.992-38.677-8.782-79.01-6.718-117.58 1.548l-2.33.504c-16.186 3.53-32.589 7.8-47.445 15.222-7.292 3.643-14.223 8.073-20.176 13.67-2.628 2.471-5.005 5.177-7.383 7.88-3.331 3.787-6.667 7.564-10.629 10.755l-3.677 2.944c-5.47 4.408-10.404 8.703-13.49 15.539-3.228 7.146-4.769 15.042-6.026 22.734-3.17 19.379-4.421 39.068-4.302 58.696.202 32.959 5.21 65.245 11.535 97.418 5.075-7.263 12.205-12.894 21.355-14.094a28.934 28.934 0 0 1 17.009 2.967 28.949 28.949 0 0 1 7.963 6.031Zm-9.587 39.135c-6.682-2.588-13.698-3.436-20.767-2.198a3.002 3.002 0 0 1-2.041-.37 3.23 3.23 0 0 1-1.334-1.514 2.856 2.856 0 0 1-.05-2.149c.228-.589.662-1.161 1.461-1.543 7.655-3.653 16.163-5.265 24.608-4.118l.835.119c4.318.64 10.389 1.988 14.942 4.64 3.577 2.084 6.195 4.957 6.846 8.71.34 1.956-.146 3.997-1.273 5.477-1.09 1.431-2.756 2.385-4.912 2.324-3.804-.109-6.057-1.716-8.766-3.798a88.345 88.345 0 0 0-1.017-.774c-2.618-1.959-5.479-3.623-8.532-4.806Z" fill="#000"/></g></g><g transform="translate(315 248)"><path fill-rule="evenodd" clip-rule="evenodd" d="M155.884 250.932c7.559-1.052 15.687-5.333 22.907-1.854 3.375 1.626 4.977 7.187 2.695 10.278-3.485 4.721-7.083 5.502-12.74 5.956-4.241.34-8.505.365-12.735-.124l-1.076-.132c-7.548-.974-15.393-3.081-21.24-8.153-1.196-1.038-.583-3.28.952-3.604 6.944-1.461 14.208-1.388 21.237-2.367Zm-8.897-17.406c-.003-.061.09-.061.093 0 .183 4.32 1.397 8.325 3.641 12.021.031.053-.05.1-.081.048a25.003 25.003 0 0 1-3.653-12.069Zm23.827-89.159c7.552 4.59 19.058 15.293 10.934 26.673-9.562 10.033-23.329-1.471-30.114-6.674-6.291-4.032-13.359 6.339-7.522 11.047 49.024 36.295 68.919-29.846 30.522-36.443-4.228-.727-5.798 3.977-3.82 5.397ZM209.464 93c1.773 0 3.469.602 5.014 1.716 1.52 1.096 2.896 2.696 4.042 4.69 2.169 3.777 3.525 8.99 3.525 14.754 0 5.765-1.356 10.978-3.525 14.754-1.146 1.995-2.522 3.595-4.042 4.691-1.545 1.113-3.241 1.715-5.014 1.715-1.773 0-3.469-.602-5.014-1.715-1.52-1.096-2.896-2.696-4.042-4.691-2.169-3.776-3.525-8.989-3.525-14.754 0-5.764 1.356-10.977 3.525-14.753 1.146-1.995 2.522-3.595 4.042-4.691 1.545-1.114 3.241-1.716 5.014-1.716Zm-82.117 5.88.667-.127c3.895-.708 5.863-.47 9.255 2.185 2.549 1.995 1.819 5.924 0 8.022-3.169 3.656-6.264 3.008-10.604 3.148l-.305.011c-3.617.147-7.237.25-10.857.305-.99.016-1.981.012-2.971.018.105 9.161-5.177 16.136-12.133 21.439-4.496 3.429-10.183-.527-11.787-4.795-1.327-3.532-1.612-7.875-.924-11.742.255-1.426.786-2.973 1.598-4.292l.229-.354-.037-.506c-.01-.125 0-.246-.004-.371-6.458-.393-12.878-1.04-19.296-1.854l-2.14-.277c-5.477-.725-13.522-.958-17.955-4.521-.14-.114-.09-.363.058-.442 2.437-1.313 4.91-1.238 7.635-1.359l.39-.019c2.965-.153 5.922-.281 8.884-.382l2.965-.093c7.582-.217 15.17-.585 22.746-.988 1.317-.07 2.634-.153 3.953-.234 1.379-.578 2.845-.924 4.293-.988a9.844 9.844 0 0 1 3.439.457 637.76 637.76 0 0 0 8.294-.697l2.763-.256c3.898-.371 7.996-.533 11.844-1.288Zm47.868-68.66c8.333-4.095 18.465-4.195 27.047-.806l.569.23c8.668 3.597 19.112 11.905 16.85 22.254-2.069 9.472-16.926 7.867-17.679-1.086-4.797-6.646-15.554-8.104-22.316-3.878-4.101 2.564-6.916 6.88-8.84 11.235-1.64 3.708-1.949 8.287-4.468 11.517-.082.105-.246.124-.365.096-7.512-1.738-7.686-13.675-6.405-19.465 1.861-8.418 7.834-16.275 15.607-20.097Z" fill="#000"/></g><g transform="translate(279 400)"/><g transform="translate(179 343)"/><g transform="translate(203 303)"/></g></svg>